<svg xmlns="http://www.w3.org/2000/svg" xmlns:xlink="http://www.w3.org/1999/xlink" version="1.1" width="1000" height="1000" viewBox="0 0 1000 1000" xml:space="preserve">
<desc>Created with Fabric.js 3.5.0</desc>
<defs>
</defs>
<rect x="0" y="0" width="100%" height="100%" fill="#000"/>
<g transform="matrix(0.8674 0 0 0.8674 743.7935 492.2407)" id="86428">
<g style="" vector-effect="non-scaling-stroke">
		<g transform="matrix(1 0 0 1 0 0.0005)" id="Layer_1">
<path style="stroke: none; stroke-width: 1; stroke-dasharray: none; stroke-linecap: butt; stroke-dashoffset: 0; stroke-linejoin: miter; stroke-miterlimit: 4; is-custom-font: none; font-file-url: none; fill: rgb(253,187,0); fill-rule: nonzero; opacity: 1;" transform=" translate(-256, -256.0005)" d="M 512 51.768 v 60.466 h -51.241 c 2.41 7.656 4.506 15.486 6.3 23.469 c 4.744 21.159 7.267 43.373 7.267 66.289 c 0 101.341 -49.36 189.053 -121.195 231.334 c -29.254 17.231 -62.236 26.907 -97.137 26.907 c -16.754 0 -33.069 -2.234 -48.744 -6.463 c -21.184 -5.711 -41.19 -15.073 -59.537 -27.484 C 81.975 381.783 37.674 298 37.674 201.992 c 0 -31.564 4.795 -61.796 13.567 -89.757 H 0 V 51.768 h 173.566 c -11.37 14.659 -20.595 32.316 -26.982 52.045 c -6.376 19.716 -9.915 41.503 -9.915 64.393 c 0 58.206 22.891 109.209 57.19 137.51 c 17.821 14.684 38.704 23.243 61.068 23.506 c 0.351 0.013 0.716 0.013 1.067 0.013 h 0.013 c 65.913 -0.013 119.324 -72.1 119.324 -161.028 c 0 -35.252 -8.383 -67.858 -22.64 -94.376 c -4.242 -7.932 -9.024 -15.311 -14.257 -22.063 L 512 51.768 L 512 51.768 z" stroke-linecap="round"/>
</g>
		<g transform="matrix(1 0 0 1 -54.68 123.743)" id="Layer_1">
<path style="stroke: none; stroke-width: 1; stroke-dasharray: none; stroke-linecap: butt; stroke-dashoffset: 0; stroke-linejoin: miter; stroke-miterlimit: 4; is-custom-font: none; font-file-url: none; fill: rgb(249,207,103); fill-rule: nonzero; opacity: 1;" transform=" translate(-201.32, -379.743)" d="M 193.859 305.717 c 17.821 14.684 38.704 23.243 61.068 23.506 l -47.677 124.546 c -21.184 -5.711 -41.19 -15.073 -59.537 -27.484 L 193.859 305.717 z" stroke-linecap="round"/>
</g>
		<g transform="matrix(1 0 0 1 157.7285 28.5135)" id="Layer_1">
<path style="stroke: none; stroke-width: 1; stroke-dasharray: none; stroke-linecap: butt; stroke-dashoffset: 0; stroke-linejoin: miter; stroke-miterlimit: 4; is-custom-font: none; font-file-url: none; fill: rgb(249,207,103); fill-rule: nonzero; opacity: 1;" transform=" translate(-413.7285, -284.5135)" d="M 467.059 135.702 c 4.744 21.159 7.267 43.373 7.267 66.289 c 0 101.341 -49.36 189.053 -121.195 231.334 L 467.059 135.702 z" stroke-linecap="round"/>
</g>
		<g transform="matrix(1 0 0 1 238.0225 -173.999)" id="Layer_1">
<polygon style="stroke: none; stroke-width: 1; stroke-dasharray: none; stroke-linecap: butt; stroke-dashoffset: 0; stroke-linejoin: miter; stroke-miterlimit: 4; is-custom-font: none; font-file-url: none; fill: rgb(249,207,103); fill-rule: nonzero; opacity: 1;" points="17.9775,-30.233 17.9775,30.233 -17.9775,30.233 5.1645,-30.233 "/>
</g>
		<g transform="matrix(1 0 0 1 -165.104 -42.178)" id="Layer_1">
<circle style="stroke: none; stroke-width: 1; stroke-dasharray: none; stroke-linecap: butt; stroke-dashoffset: 0; stroke-linejoin: miter; stroke-miterlimit: 4; is-custom-font: none; font-file-url: none; fill: rgb(166,124,82); fill-rule: nonzero; opacity: 1;" cx="0" cy="0" r="18.824"/>
</g>
		<g transform="matrix(1 0 0 1 -114.269 85.194)" id="Layer_1">
<circle style="stroke: none; stroke-width: 1; stroke-dasharray: none; stroke-linecap: butt; stroke-dashoffset: 0; stroke-linejoin: miter; stroke-miterlimit: 4; is-custom-font: none; font-file-url: none; fill: rgb(166,124,82); fill-rule: nonzero; opacity: 1;" cx="0" cy="0" r="18.824"/>
</g>
		<g transform="matrix(1 0 0 1 0.005 137.268)" id="Layer_1">
<circle style="stroke: none; stroke-width: 1; stroke-dasharray: none; stroke-linecap: butt; stroke-dashoffset: 0; stroke-linejoin: miter; stroke-miterlimit: 4; is-custom-font: none; font-file-url: none; fill: rgb(166,124,82); fill-rule: nonzero; opacity: 1;" cx="0" cy="0" r="18.824"/>
</g>
		<g transform="matrix(1 0 0 1 165.103 -42.178)" id="Layer_1">
<circle style="stroke: none; stroke-width: 1; stroke-dasharray: none; stroke-linecap: butt; stroke-dashoffset: 0; stroke-linejoin: miter; stroke-miterlimit: 4; is-custom-font: none; font-file-url: none; fill: rgb(166,124,82); fill-rule: nonzero; opacity: 1;" cx="0" cy="0" r="18.824"/>
</g>
		<g transform="matrix(1 0 0 1 114.279 85.194)" id="Layer_1">
<circle style="stroke: none; stroke-width: 1; stroke-dasharray: none; stroke-linecap: butt; stroke-dashoffset: 0; stroke-linejoin: miter; stroke-miterlimit: 4; is-custom-font: none; font-file-url: none; fill: rgb(166,124,82); fill-rule: nonzero; opacity: 1;" cx="0" cy="0" r="18.824"/>
</g>
</g>
</g>
<g transform="matrix(6.7378 0 0 6.7378 295.4108 485.7959)" id="446687">
<g style="" vector-effect="non-scaling-stroke">
		<g transform="matrix(1 0 0 1 0 0)">
<circle style="stroke: none; stroke-width: 1; stroke-dasharray: none; stroke-linecap: butt; stroke-dashoffset: 0; stroke-linejoin: miter; stroke-miterlimit: 4; is-custom-font: none; font-file-url: none; fill: rgb(249,207,103); fill-rule: nonzero; opacity: 1;" cx="0" cy="0" r="30"/>
</g>
		<g transform="matrix(1 0 0 1 0.95 -0.1)">
<path style="stroke: none; stroke-width: 1; stroke-dasharray: none; stroke-linecap: butt; stroke-dashoffset: 0; stroke-linejoin: miter; stroke-miterlimit: 4; is-custom-font: none; font-file-url: none; fill: rgb(0,0,0); fill-rule: nonzero; opacity: 1;" transform=" translate(-32.95, -31.9)" d="M 39.6 18.2 c 1.1 0.5 2 1.1 2.7 2 c 0.6 0.7 1.1 1.5 1.5 2.4 c 0.4 0.9 0.5 1.9 0.5 3.1 c 0 1.4 -0.3 2.7 -1 4.1 s -1.8 2.3 -3.4 2.8 c 1.3 0.5 2.3 1.3 2.8 2.3 c 0.6 1 0.8 2.5 0.8 4.5 v 1.9 c 0 1.3 0.1 2.2 0.2 2.7 c 0.2 0.7 0.5 1.3 1.1 1.7 v 0.7 h -6.7 c -0.2 -0.6 -0.3 -1.2 -0.4 -1.6 c -0.2 -0.8 -0.2 -1.6 -0.3 -2.5 v -2.7 c 0 -1.8 -0.3 -3.1 -1 -3.7 c -0.6 -0.6 -1.8 -0.9 -3.5 -0.9 H 27 v 11.4 h -5.9 v -29 H 35 c 2 0.1 3.6 0.4 4.6 0.8 m -12.5 4.3 v 7.8 h 6.5 c 1.3 0 2.3 -0.2 2.9 -0.5 c 1.1 -0.6 1.7 -1.6 1.7 -3.3 c 0 -1.8 -0.6 -2.9 -1.7 -3.5 c -0.6 -0.3 -1.6 -0.5 -2.8 -0.5 h -6.6" stroke-linecap="round"/>
</g>
</g>
</g>
</svg>