<?xml version="1.0" encoding="iso-8859-1"?>
<!-- Generator: Adobe Illustrator 19.0.0, SVG Export Plug-In . SVG Version: 6.00 Build 0)  -->
<svg version="1.1" id="Layer_1" xmlns="http://www.w3.org/2000/svg" xmlns:xlink="http://www.w3.org/1999/xlink" x="0px" y="0px"
	 viewBox="0 0 512 512" style="enable-background:new 0 0 512 512;" xml:space="preserve">
<g transform="translate(1 1)">
	<path style="fill:#FFDD09;" d="M485.211,51.907l-25.6-44.373l-93.867,54.613l11.947,30.72c12.8,27.307,30.72,117.76,30.72,162.133
		c0,110.08-58.88,179.2-153.6,179.2l0,0l0,0l0,0l0,0c-94.72,0-153.6-69.12-153.6-179.2c0-44.373,17.92-134.827,30.72-162.133
		l11.947-30.72L50.011,7.533l-25.6,44.373L65.371,75.8C50.011,117.613,32.944,202.947,32.944,255
		c0,148.48,88.747,247.467,221.867,247.467S476.677,402.627,476.677,255c0-52.053-17.067-137.387-32.427-179.2L485.211,51.907z"/>
	<path d="M260.784,474.307c-3.413,3.413-8.533,3.413-11.947,0c-3.413-3.413-3.413-8.533,0-11.947c3.413-3.413,8.533-3.413,11.947,0
		C264.197,465.773,264.197,470.893,260.784,474.307"/>
	<path id="SVGCleanerId_0" d="M320.517,465.773c-3.413,3.413-8.533,3.413-11.947,0c-3.413-3.413-3.413-8.533,0-11.947
		c3.413-3.413,8.533-3.413,11.947,0C323.931,457.24,323.931,462.36,320.517,465.773"/>
	<path id="SVGCleanerId_1" d="M371.717,440.173c-3.413,3.413-8.533,3.413-11.947,0c-3.413-3.413-3.413-8.533,0-11.947
		c3.413-3.413,8.533-3.413,11.947,0C375.131,431.64,375.131,436.76,371.717,440.173"/>
	<path id="SVGCleanerId_2" d="M405.851,406.04c-3.413,3.413-8.533,3.413-11.947,0c-3.413-3.413-3.413-8.533,0-11.947
		c3.413-3.413,8.533-3.413,11.947,0C409.264,397.507,409.264,402.627,405.851,406.04"/>
	<path d="M254.811,511c-137.387,0-230.4-103.253-230.4-256c0-50.347,15.36-131.413,30.72-174.933l-34.987-20.48
		c-4.267-2.56-5.12-7.68-3.413-11.947l25.6-44.373C44.037,1.56,45.744-0.147,47.451-1c2.56,0,5.12,0,6.827,0.853l93.867,54.613
		c3.413,1.707,5.12,6.827,3.413,10.24l-11.947,30.72c-12.8,28.16-29.867,118.613-29.867,159.573
		c0,104.96,55.467,169.813,144.213,170.667c0.853,0,1.707,0,1.707,0c88.747,0,144.213-65.707,144.213-170.667
		c0-40.96-17.067-131.413-29.867-158.72l-11.947-31.573c-1.707-4.267,0-8.533,3.413-10.24l93.867-54.613
		C457.051-1,459.611-1,462.171-1c2.56,0.853,4.267,1.707,5.12,4.267l25.6,44.373c2.56,4.267,0.853,9.387-3.413,11.947l-34.987,20.48
		c15.36,43.52,30.72,124.587,30.72,174.933C485.211,407.747,392.197,511,254.811,511z M36.357,49.347l33.28,19.627
		c3.413,1.707,5.12,6.827,3.413,10.24C58.544,120.173,41.477,203.8,41.477,255c0,143.36,85.333,238.933,213.333,238.933
		S468.144,397.507,468.144,255c0-51.2-17.067-134.827-31.573-176.64c-1.707-4.267,0-8.533,3.413-10.24l33.28-19.627l-17.067-29.867
		L375.984,65.56l9.387,23.893c14.507,29.013,31.573,120.32,31.573,165.547c0,116.053-62.293,187.733-162.133,187.733l0,0l0,0
		c-99.84,0-162.133-71.68-162.133-187.733c0-45.227,17.067-136.533,31.573-165.547l9.387-23.04L53.424,19.48L36.357,49.347z"/>
	<g>
		<path id="SVGCleanerId_0_1_" d="M320.517,465.773c-3.413,3.413-8.533,3.413-11.947,0c-3.413-3.413-3.413-8.533,0-11.947
			c3.413-3.413,8.533-3.413,11.947,0C323.931,457.24,323.931,462.36,320.517,465.773"/>
	</g>
	<g>
		<path id="SVGCleanerId_1_1_" d="M371.717,440.173c-3.413,3.413-8.533,3.413-11.947,0c-3.413-3.413-3.413-8.533,0-11.947
			c3.413-3.413,8.533-3.413,11.947,0C375.131,431.64,375.131,436.76,371.717,440.173"/>
	</g>
	<g>
		<path id="SVGCleanerId_2_1_" d="M405.851,406.04c-3.413,3.413-8.533,3.413-11.947,0c-3.413-3.413-3.413-8.533,0-11.947
			c3.413-3.413,8.533-3.413,11.947,0C409.264,397.507,409.264,402.627,405.851,406.04"/>
	</g>
	<path id="SVGCleanerId_3" d="M414.384,81.773c-3.413,3.413-8.533,3.413-11.947,0c-3.413-3.413-3.413-8.533,0-11.947
		c3.413-3.413,8.533-3.413,11.947,0C417.797,73.24,417.797,78.36,414.384,81.773"/>
	<g>
		<path id="SVGCleanerId_3_1_" d="M414.384,81.773c-3.413,3.413-8.533,3.413-11.947,0c-3.413-3.413-3.413-8.533,0-11.947
			c3.413-3.413,8.533-3.413,11.947,0C417.797,73.24,417.797,78.36,414.384,81.773"/>
	</g>
	<path id="SVGCleanerId_4" d="M107.184,81.773c-3.413,3.413-8.533,3.413-11.947,0c-3.413-3.413-3.413-8.533,0-11.947
		c3.413-3.413,8.533-3.413,11.947,0C110.597,73.24,110.597,78.36,107.184,81.773"/>
	<g>
		<path id="SVGCleanerId_4_1_" d="M107.184,81.773c-3.413,3.413-8.533,3.413-11.947,0c-3.413-3.413-3.413-8.533,0-11.947
			c3.413-3.413,8.533-3.413,11.947,0C110.597,73.24,110.597,78.36,107.184,81.773"/>
	</g>
	<path d="M189.104,465.773c3.413,3.413,8.533,3.413,11.947,0c3.413-3.413,3.413-8.533,0-11.947c-3.413-3.413-8.533-3.413-11.947,0
		C185.691,457.24,185.691,462.36,189.104,465.773"/>
	<path d="M137.904,440.173c3.413,3.413,8.533,3.413,11.947,0c3.413-3.413,3.413-8.533,0-11.947c-3.413-3.413-8.533-3.413-11.947,0
		C134.491,431.64,134.491,436.76,137.904,440.173"/>
	<path d="M103.771,406.04c3.413,3.413,8.533,3.413,11.947,0c3.413-3.413,3.413-8.533,0-11.947c-3.413-3.413-8.533-3.413-11.947,0
		C100.357,397.507,100.357,402.627,103.771,406.04"/>
</g>
<g>
</g>
<g>
</g>
<g>
</g>
<g>
</g>
<g>
</g>
<g>
</g>
<g>
</g>
<g>
</g>
<g>
</g>
<g>
</g>
<g>
</g>
<g>
</g>
<g>
</g>
<g>
</g>
<g>
</g>
</svg>