<?xml version="1.0" encoding="iso-8859-1"?>
<!-- Generator: Adobe Illustrator 19.0.0, SVG Export Plug-In . SVG Version: 6.00 Build 0)  -->
<svg version="1.1" id="Layer_1" xmlns="http://www.w3.org/2000/svg" xmlns:xlink="http://www.w3.org/1999/xlink" x="0px" y="0px"
	 viewBox="0 0 512 512" style="enable-background:new 0 0 512 512;" xml:space="preserve">
<path style="fill:#FDBB00;" d="M512,51.768v60.466h-51.241c2.41,7.656,4.506,15.486,6.3,23.469
	c4.744,21.159,7.267,43.373,7.267,66.289c0,101.341-49.36,189.053-121.195,231.334c-29.254,17.231-62.236,26.907-97.137,26.907
	c-16.754,0-33.069-2.234-48.744-6.463c-21.184-5.711-41.19-15.073-59.537-27.484C81.975,381.783,37.674,298,37.674,201.992
	c0-31.564,4.795-61.796,13.567-89.757H0V51.768h173.566c-11.37,14.659-20.595,32.316-26.982,52.045
	c-6.376,19.716-9.915,41.503-9.915,64.393c0,58.206,22.891,109.209,57.19,137.51c17.821,14.684,38.704,23.243,61.068,23.506
	c0.351,0.013,0.716,0.013,1.067,0.013h0.013c65.913-0.013,119.324-72.1,119.324-161.028c0-35.252-8.383-67.858-22.64-94.376
	c-4.242-7.932-9.024-15.311-14.257-22.063L512,51.768L512,51.768z"/>
<g>
	<path style="fill:#F9CF67;" d="M193.859,305.717c17.821,14.684,38.704,23.243,61.068,23.506l-47.677,124.546
		c-21.184-5.711-41.19-15.073-59.537-27.484L193.859,305.717z"/>
	<path style="fill:#F9CF67;" d="M467.059,135.702c4.744,21.159,7.267,43.373,7.267,66.289c0,101.341-49.36,189.053-121.195,231.334
		L467.059,135.702z"/>
	<polygon style="fill:#F9CF67;" points="512,51.768 512,112.234 476.045,112.234 499.187,51.768 	"/>
</g>
<g>
	<circle style="fill:#A67C52;" cx="90.896" cy="213.822" r="18.824"/>
	<circle style="fill:#A67C52;" cx="141.731" cy="341.194" r="18.824"/>
	<circle style="fill:#A67C52;" cx="256.005" cy="393.268" r="18.824"/>
	<circle style="fill:#A67C52;" cx="421.103" cy="213.822" r="18.824"/>
	<circle style="fill:#A67C52;" cx="370.279" cy="341.194" r="18.824"/>
</g>
<g>
</g>
<g>
</g>
<g>
</g>
<g>
</g>
<g>
</g>
<g>
</g>
<g>
</g>
<g>
</g>
<g>
</g>
<g>
</g>
<g>
</g>
<g>
</g>
<g>
</g>
<g>
</g>
<g>
</g>
</svg>
